<?xml version="1.0" encoding="utf-8"?>
<!-- Generator: Adobe Illustrator 24.0.2, SVG Export Plug-In . SVG Version: 6.00 Build 0)  -->
<svg version="1.1" id="Layer_1" xmlns="http://www.w3.org/2000/svg" xmlns:xlink="http://www.w3.org/1999/xlink" x="0px" y="0px"
	 viewBox="0 0 149.2 172.2" style="enable-background:new 0 0 149.2 172.2;" xml:space="preserve">
<style type="text/css">
	.st0{fill:#FFFFFF;}
	.st1{fill:#C3E7F1;}
	.st2{fill:#9FDAE6;}
	.st3{fill:#72CBD2;}
	.st4{fill:#8BD3DF;}
	.st5{fill:#D7EFF4;}
	.st6{fill:#7BCED8;}
	.st7{fill:#8AD3DF;}
	.st8{fill:#5BA9AF;}
	.st9{fill:#6FC0C6;}
	.st10{fill:#66BEC2;}
	.st11{fill:#7ACDD7;}
	.st12{fill:#95D6DF;}
</style>
<path class="st0" d="M41.9,84.7L67,111.5L54.9,84.7H41.9z M74.6,115.8l14.1-31.1H60.5L74.6,115.8z M55,79.6l8.2-15.5H52.7L41.1,79.6
	C41.1,79.6,55,79.6,55,79.6z M82.2,111.5l25.1-26.8h-13L82.2,111.5z M60.8,79.6h27.5l-8.2-15.5h-11L60.8,79.6z M94.2,79.6h13.9
	L96.5,64.1H85.9L94.2,79.6z M99.8,60l15.5,20.6c0.4,0.5,0.6,1,0.5,1.7c0,0.6-0.3,1.2-0.7,1.6l-38.7,41.2c-0.5,0.5-1.1,0.8-1.9,0.8
	c-0.8,0-1.4-0.3-1.9-0.8L34,83.9c-0.4-0.5-0.7-1-0.7-1.6c0-0.6,0.1-1.2,0.5-1.7L49.3,60c0.5-0.7,1.2-1,2.1-1h46.4
	C98.7,59,99.4,59.3,99.8,60z"/>
<g>
	<path class="st1" d="M119.3,60.4c0.5,1.6,1,3.1,1.4,4.7c1.2,4.8,2.4,9.7,3.5,14.6c1.1,4.8,2.2,9.7,3.4,14.5
		c1.5,6.4,3.1,12.8,4.7,19.2c-0.4-0.3-1-0.6-1.3-1c-2.8-4.3-5.5-8.7-8.3-13c-2.9-4.4-5.8-8.9-8.7-13.3c-2.8-4.3-5.6-8.5-8.4-12.8
		c-2.1-3.2-4.3-6.5-6.4-9.7c-0.4-0.5-0.8-1-1.2-1.5c0.2,1.6,0.7,3,1.2,4.4c1.9,5.4,3.8,10.9,5.7,16.3c1.2,3.5,2.3,7.1,3.5,10.6
		c1.1,3.2,2.3,6.4,3.5,9.7c1.4,3.9,2.7,7.9,4.1,11.9c-6,0-11.9,0-17.9,0c-0.1-1.4-0.2-2.8-0.2-4.2c-0.1-5.9-0.2-11.8-0.3-17.7
		c-0.1-8.1-0.2-16.3-0.3-24.4c0-2.1,0-4.2,0-6.3c0-0.3,0-0.6-0.1-0.9c-0.7,1-1.2,2.1-1.6,3.2c-1.5,3.6-3.1,7.1-4.5,10.7
		c-1.5,3.6-2.8,7.2-4.3,10.8c-1.9,4.7-3.9,9.3-5.9,14c-1.8,4.3-3.5,8.7-5.3,13c-0.2,0.6-0.7,1-1,1.5c-0.2-0.5-0.3-1-0.5-1.4
		c-2.2-5.3-4.4-10.7-6.6-16c-2.2-5.3-4.4-10.7-6.6-16c-1.8-4.3-3.5-8.7-5.3-13c-0.9-2.3-2-4.5-3-6.8c0-0.3,0-0.5-0.1-0.8l0,0
		c14.3,0,28.6,0,42.9,0c0.5,0,1-0.2,1.4-0.2c0.6,0.1,1.1,0.2,1.7,0.2c6.3,0,12.7,0,19,0C118.4,60.6,118.9,60.4,119.3,60.4z"/>
	<path class="st2" d="M97.2,60.4c-0.5,0.1-1,0.2-1.4,0.2c-14.3,0-28.6,0-42.9,0c0.7-2,1.4-4.1,2.2-6.1c1.4-3.9,2.8-7.8,4.2-11.6
		c1.8-4.9,3.7-9.8,5.5-14.8c1.8-5,3.6-10.1,5.4-15.2c1.1-3,2.4-5.9,3.5-8.9c0.4-1,0.5-2.1,0.8-3.2c0.1-0.2,0.2-0.4,0.5-0.9
		c0.3,0.6,0.4,1,0.6,1.4c0.9,2.6,1.7,5.1,2.7,7.7c3.1,8.3,6.2,16.6,9.3,24.9c1.5,4.1,3,8.3,4.5,12.5C93.8,51,95.5,55.7,97.2,60.4z"
		/>
	<path class="st3" d="M98.2,114.8c6,0,11.9,0,17.9,0c0.1,0,0.2,0,0.3,0c-0.1,0.7-0.2,1.4-0.2,2.1c0,12,0,24.1,0,36.1
		c0,0.4,0.1,0.9,0.2,1.3c-0.2,0.2-0.3,0.5-0.5,0.7c-3.8-0.6-7.6-1.2-11.4-1.7c-4.6-0.6-9.1-1.2-13.7-1.8c0-0.1,0-0.2,0-0.2
		c0.2-0.6,0.4-1.2,0.5-1.8c1.6-7.7,3.2-15.5,4.7-23.2c0.8-3.8,1.4-7.7,2.2-11.5C98,114.8,98.1,114.8,98.2,114.8z"/>
	<path class="st4" d="M74.5,0.9C74.2,1.9,74,3,73.6,4c-1.1,3-2.4,5.9-3.5,8.9c-1.9,5-3.6,10.1-5.4,15.2c-1.8,4.9-3.7,9.8-5.5,14.8
		c-1.4,3.9-2.8,7.7-4.2,11.6c-0.7,2-1.4,4.1-2.2,6.1c0,0,0,0,0,0c-6.9,0-13.8,0-20.7,0c-0.5,0-1-0.3-1.4-0.5
		c1.9-2.6,3.8-5.2,5.7-7.8C44.3,41.5,52.2,30.7,60.2,20C64.8,13.7,69.4,7.5,74,1.3C74.1,1.1,74.3,1,74.5,0.9z"/>
	<path class="st5" d="M97.2,60.4c-1.7-4.7-3.4-9.3-5.1-14c-1.5-4.2-3-8.3-4.5-12.5c-3.1-8.3-6.2-16.6-9.3-24.9
		c-0.9-2.5-1.8-5.1-2.7-7.7C76,1.9,76.6,2.3,77,2.8c3.2,4.3,6.4,8.7,9.6,13c3.7,5,7.5,10,11.2,15.1c2.8,3.7,5.5,7.5,8.2,11.2
		c2.4,3.3,4.8,6.5,7.2,9.7c2.1,2.8,4.1,5.7,6.1,8.5c-0.5,0.1-1,0.2-1.5,0.2c-6.3,0-12.7,0-19,0C98.3,60.6,97.8,60.4,97.2,60.4z"/>
	<path class="st6" d="M30.7,60.1c0.5,0.2,1,0.5,1.4,0.5c6.9,0,13.8,0,20.7,0c0,0.3,0,0.5,0.1,0.8c-0.2,0-0.3,0-0.5,0
		c-0.1,0.2-0.2,0.3-0.3,0.5c0,0,0,0.1-0.1,0.1c0,0,0-0.1,0.1-0.1c0.1,0,0.2,0,0.3,0c0.1,0.4,0.2,0.8,0.2,1.3c-0.3,0-0.5,0-0.8,0
		c-0.2-0.7-0.5-0.4-0.7-0.1c-1,1.4-2,2.8-3,4.2c-2.4,3.6-4.6,7.3-7,11c-3.9,6-7.8,12-11.7,17.9c-3.4,5.3-6.9,10.5-10.4,15.8
		c-0.4,0.6-1,1.1-1.6,1.6c1.1-4.8,2.2-9.5,3.4-14.3c2.4-10,4.8-19.9,7.2-29.9c0.6-2.6,1.2-5.2,1.9-7.8
		C30.1,61.1,30.4,60.6,30.7,60.1z"/>
	<path class="st3" d="M34.2,155.1c-0.2-0.3-0.5-0.7-0.7-1c0.1-0.9,0.2-1.9,0.2-2.8c0-11.9,0-23.8,0-35.8c0.7,0.7,1.5,1.3,2,2
		c2.5,3.5,4.8,7.1,7.3,10.6c1.9,2.8,3.9,5.5,5.8,8.3c2.9,4.1,5.7,8.3,8.6,12.4c0.4,0.6,1,1.1,1.5,1.7c0.2,0.2,0.3,0.5,0.5,0.7
		c0,0.1,0,0.2,0,0.3l0,0c-0.7,0.1-1.3,0.2-2,0.2c-2.9,0.4-5.9,0.8-8.8,1.2c-2.9,0.4-5.9,0.7-8.8,1.1
		C37.9,154.4,36.1,154.7,34.2,155.1z"/>
	<path class="st2" d="M116.3,114.8c-0.1,0-0.2,0-0.3,0c-1.4-4-2.7-7.9-4.1-11.9c-1.1-3.2-2.3-6.4-3.5-9.7c-1.2-3.5-2.3-7.1-3.5-10.6
		c-1.9-5.4-3.8-10.9-5.7-16.3c-0.5-1.4-0.9-2.8-1.2-4.4c0.4,0.5,0.9,1,1.2,1.5c2.1,3.2,4.3,6.5,6.4,9.7c2.8,4.3,5.6,8.5,8.4,12.8
		c2.9,4.4,5.8,8.8,8.7,13.3c2.8,4.3,5.5,8.7,8.3,13c0.3,0.4,0.8,0.7,1.3,1c0.1,0.5,0.2,1,0.3,1.5c-0.1,0-0.2,0-0.2,0
		C127.1,114.8,121.7,114.8,116.3,114.8z"/>
	<path class="st7" d="M17.5,113.5c0.5-0.5,1.2-1,1.6-1.6c3.5-5.2,7-10.5,10.4-15.8c3.9-6,7.8-11.9,11.7-17.9c2.4-3.6,4.6-7.3,7-11
		c0.9-1.4,2-2.8,3-4.2c0.3-0.4,0.5-0.6,0.7,0.1c-0.7,1.8-1.4,3.6-2,5.4c-1.1,3.3-2.2,6.6-3.3,9.9c-1.4,4.1-3,8.2-4.4,12.4
		c-1.3,3.6-2.4,7.3-3.6,10.9c-1.5,4.5-3.2,8.9-4.7,13.3c-5.4-0.1-10.7-0.2-16.1-0.2c-0.1,0.1-0.2,0.2-0.2,0.2c0,0.1,0,0.2,0,0.3
		C17.4,114.7,17.4,114.1,17.5,113.5z"/>
	<path class="st8" d="M75.5,172.7c-0.3,0-0.7,0-1,0c-0.1-0.2-0.1-0.4-0.2-0.6c-2.6-3.6-5.2-7.1-7.9-10.7c-1.2-1.6-2.4-3.2-3.5-4.8
		c-1.2-1.7-2.3-3.4-3.5-5.1c0,0,0,0,0,0c10.3,0,20.7,0,31,0c-0.2,0.4-0.3,0.8-0.6,1.2c-1.6,2.2-3.2,4.5-4.8,6.7
		c-2.9,3.9-5.8,7.7-8.6,11.6C75.9,171.6,75.8,172.2,75.5,172.7z"/>
	<path class="st9" d="M116.3,114.8c5.4,0,10.7,0,16.1,0c0.1,0.1,0.1,0.1,0.2,0.2c-1.2,2.9-2.3,5.7-3.5,8.6
		c-4.1,9.9-8.2,19.7-12.3,29.6c-0.2,0.4-0.4,0.8-0.5,1.1c-0.1-0.4-0.2-0.9-0.2-1.3c0-12,0-24.1,0-36.1
		C116.1,116.2,116.2,115.5,116.3,114.8z"/>
	<path class="st9" d="M17.3,115.3c0-0.1,0-0.2,0-0.3c0.1-0.1,0.2-0.2,0.2-0.2c5.4,0.1,10.7,0.2,16.1,0.2c0,0.2,0,0.3,0,0.5
		c0,11.9,0,23.8,0,35.8c0,0.9-0.1,1.9-0.2,2.8c-3.5-8.3-6.9-16.5-10.4-24.8C21.2,124.7,19.2,120,17.3,115.3z"/>
	<path class="st10" d="M59.4,151.6c1.2,1.7,2.3,3.4,3.5,5.1c1.1,1.6,2.3,3.2,3.5,4.8c2.6,3.6,5.2,7.1,7.9,10.7
		c0.1,0.2,0.1,0.4,0.2,0.6c-3.3-1.4-6.7-2.9-10-4.3c-9.8-4.3-19.6-8.6-29.3-12.9c-0.3-0.1-0.6-0.3-0.9-0.4c1.9-0.3,3.7-0.7,5.6-1
		c2.9-0.4,5.9-0.7,8.8-1.1c2.9-0.4,5.9-0.8,8.8-1.2C58.1,151.7,58.7,151.7,59.4,151.6z"/>
	<path class="st10" d="M75.5,172.7c0.3-0.6,0.5-1.2,0.8-1.6c2.9-3.9,5.7-7.7,8.6-11.6c1.6-2.2,3.2-4.4,4.8-6.7
		c0.3-0.4,0.4-0.8,0.6-1.2c0.1,0,0.2,0,0.3,0c4.6,0.6,9.2,1.2,13.7,1.8c3.8,0.5,7.6,1.1,11.4,1.7c-12,5.3-24.1,10.6-36.1,15.9
		C78.3,171.6,76.9,172.2,75.5,172.7z"/>
	<path class="st3" d="M132.7,115c-0.1-0.1-0.1-0.1-0.2-0.2c0.1,0,0.2,0,0.2,0C132.7,114.9,132.7,115,132.7,115z"/>
	<path class="st2" d="M98.2,114.8c-0.1,0-0.1,0-0.2,0c-1.6,0.1-3.2,0.2-4.8,0.2c-6,0-11.9,0-17.9,0c-0.2-0.1-0.3-0.2-0.5-0.3
		c0-0.1,0-0.2,0-0.3c0.3-0.5,0.8-1,1-1.5c1.8-4.3,3.5-8.7,5.3-13c1.9-4.7,3.9-9.3,5.9-14c1.5-3.6,2.8-7.2,4.3-10.8
		c1.5-3.6,3-7.1,4.5-10.7c0.5-1.1,0.9-2.2,1.6-3.2c0,0.3,0.1,0.6,0.1,0.9c0,2.1,0,4.2,0,6.3c0.1,8.1,0.2,16.3,0.3,24.4
		c0.1,5.9,0.2,11.8,0.3,17.7C98,112,98.1,113.4,98.2,114.8z"/>
	<path class="st4" d="M74.8,114.5c0,0.1,0,0.2,0,0.3c0,0,0,0,0,0c-1.4,0.1-2.7,0.2-4.1,0.2c-6.3,0-12.5,0-18.8,0
		c0.1-2.8,0.2-5.7,0.2-8.5c0.1-5.3,0.2-10.6,0.3-15.8c0.1-6.2,0.2-12.4,0.2-18.6c0-3,0-6,0-8.9c-0.1-0.4-0.2-0.8-0.2-1.3
		c0-0.2,0-0.3,0-0.5c0.2,0,0.3,0,0.5,0c1,2.3,2,4.5,3,6.8c1.8,4.3,3.5,8.7,5.3,13c2.2,5.3,4.4,10.7,6.6,16c2.2,5.3,4.4,10.7,6.6,16
		C74.5,113.6,74.6,114.1,74.8,114.5z"/>
	<path class="st11" d="M74.7,114.8c0.2,0.1,0.3,0.2,0.5,0.3c0.1,0.4,0.2,0.7,0.3,1.1c1.1,2.7,2.3,5.4,3.5,8.1c1.7,4,3.3,8,5,12
		c1,2.3,2,4.7,3,7c1.2,2.7,2.3,5.4,3.5,8.2c0,0.1,0,0.2,0,0.2c-0.1,0-0.2,0-0.3,0c-10.3,0-20.7,0-31,0c0-0.1,0-0.2,0-0.3
		c0.5-1.1,1-2.3,1.5-3.4c1.6-3.9,3.2-7.8,4.8-11.7c2.3-5.4,4.8-10.9,7.1-16.3C73.5,118.3,74.1,116.5,74.7,114.8
		C74.7,114.8,74.7,114.8,74.7,114.8z"/>
	<path class="st12" d="M90.6,151.3c-1.2-2.7-2.3-5.4-3.5-8.2c-1-2.3-2.1-4.7-3-7c-1.7-4-3.4-8-5-12c-1.1-2.7-2.3-5.4-3.5-8.1
		c-0.1-0.3-0.2-0.7-0.3-1.1c6,0,11.9,0,17.9,0c1.6,0,3.2-0.1,4.8-0.2c-0.7,3.8-1.4,7.7-2.2,11.5c-1.5,7.7-3.1,15.5-4.7,23.2
		C91,150.1,90.8,150.7,90.6,151.3z"/>
	<path class="st11" d="M52.6,63.1c0,3,0,6,0,8.9c-0.1,6.2-0.2,12.4-0.2,18.6c-0.1,5.3-0.2,10.6-0.3,15.8c-0.1,2.8-0.2,5.7-0.2,8.5
		c0.1,0.6,0.2,1.1,0.4,1.7c1.1,5.6,2.3,11.1,3.4,16.7c0.7,3.6,1.5,7.2,2.2,10.8c0.4,2.1,0.7,4.3,1.1,6.4c-0.5-0.6-1.1-1.1-1.5-1.7
		c-2.9-4.1-5.7-8.3-8.6-12.4c-1.9-2.8-3.9-5.5-5.8-8.3c-2.4-3.5-4.8-7.1-7.3-10.6c-0.5-0.8-1.3-1.4-2-2c0-0.2,0-0.3,0-0.5
		c1.6-4.4,3.2-8.9,4.7-13.3c1.2-3.6,2.4-7.3,3.6-10.9c1.4-4.1,3-8.2,4.4-12.4c1.2-3.3,2.2-6.6,3.3-9.9c0.6-1.8,1.3-3.6,2-5.4
		C52.1,63.1,52.3,63.1,52.6,63.1z"/>
	<path class="st7" d="M52.3,61.4c0,0.2,0,0.3,0,0.5c-0.1,0-0.2,0-0.3,0l0,0C52.2,61.7,52.2,61.5,52.3,61.4z"/>
	<path class="st7" d="M52.1,61.9c0,0,0,0.1-0.1,0.1C52,61.9,52,61.9,52.1,61.9L52.1,61.9z"/>
	<path class="st10" d="M58.9,150.6c-0.4-2.1-0.7-4.3-1.1-6.4c-0.7-3.6-1.4-7.2-2.2-10.8c-1.1-5.6-2.3-11.1-3.4-16.7
		c-0.1-0.6-0.2-1.1-0.4-1.7c6.3,0,12.5,0,18.8,0c1.4,0,2.7-0.1,4.1-0.2c-0.6,1.7-1.2,3.4-2,5.1c-2.3,5.4-4.8,10.8-7.1,16.3
		c-1.7,3.9-3.2,7.8-4.8,11.7c-0.5,1.1-1,2.3-1.5,3.4C59.2,151.1,59,150.8,58.9,150.6z"/>
	<path class="st11" d="M17.6,114.8c-0.1,0.1-0.2,0.2-0.2,0.2C17.4,115,17.5,114.9,17.6,114.8z"/>
</g>
</svg>
